<svg width="80" height="80" viewBox="0 0 80 80" fill="none" xmlns="http://www.w3.org/2000/svg">
  <ellipse cx="40" cy="40.9756" rx="40" ry="39.0244" fill="#1D4CF2"/>
  <path d="M61.576 22.208C62.472 22.336 63.08 22.608 63.4 23.024C63.752 23.44 63.928 23.984 63.928 24.656C63.928 26.864 62.744 27.888 60.376 27.728L58.696 27.584C56.808 27.424 54.92 27.296 53.032 27.2C51.176 27.104 49.224 27.056 47.176 27.056H45.016C44.632 31.792 44.232 36.112 43.816 40.016L52.072 39.872C53.256 39.872 54.04 40.08 54.424 40.496C54.84 40.912 55.048 41.472 55.048 42.176C55.048 43.264 54.728 44.128 54.088 44.768C53.448 45.376 52.536 45.68 51.352 45.68H43.144L42.856 47.744C42.184 53.024 40.744 56.784 38.536 59.024C36.36 61.264 33.352 62.384 29.512 62.384C27.336 62.384 25.336 61.92 23.512 60.992C21.688 60.032 20.344 58.88 19.48 57.536C19.128 56.992 18.952 56.336 18.952 55.568C18.952 54.8 19.128 54.128 19.48 53.552C19.864 52.976 20.328 52.688 20.872 52.688C21.256 52.688 21.624 52.816 21.976 53.072C22.36 53.328 22.84 53.824 23.416 54.56C24.952 56.576 26.856 57.584 29.128 57.584C30.952 57.584 32.472 56.848 33.688 55.376C34.936 53.872 35.736 51.52 36.088 48.32L36.376 45.68H34.072C33.336 45.68 32.696 45.472 32.152 45.056C31.64 44.64 31.384 44.048 31.384 43.28C31.384 42.288 31.64 41.536 32.152 41.024C32.664 40.48 33.416 40.208 34.408 40.208C35.304 40.208 36.184 40.192 37.048 40.16C37.432 36.64 37.848 32.368 38.296 27.344C34.84 27.664 32.408 28.224 31 29.024C29.592 29.824 28.888 31.008 28.888 32.576C28.888 33.664 29.208 34.704 29.848 35.696C30.04 35.984 30.136 36.272 30.136 36.56C30.136 37.136 29.816 37.648 29.176 38.096C28.536 38.512 27.816 38.72 27.016 38.72C26.152 38.72 25.416 38.464 24.808 37.952C24.424 37.632 24.056 36.976 23.704 35.984C23.352 34.992 23.176 33.888 23.176 32.672C23.176 28.704 25.208 25.824 29.272 24.032C33.368 22.24 39.336 21.344 47.176 21.344C52.616 21.344 57.416 21.632 61.576 22.208Z" fill="#FAFAFF"/>
</svg>
